<svg width="64" height="75" viewBox="0 0 64 75" fill="none" xmlns="http://www.w3.org/2000/svg">
<path d="M52.001 25.1661L29.75 1M52.001 25.1661H37.75C33.3317 25.1661 29.75 21.5844 29.75 17.1661V1M52.001 25.1661L51.9171 41.9354V41.9354C39.2959 36.6547 26.1078 48.1629 29.6309 61.383L30.0618 63H9.00098C4.5827 63 1.00098 59.4183 1.00098 55V9C1.00098 4.58172 4.5827 1 9.00098 1H29.75M11.2404 43.5H36M11.2404 33H41.1709M46 47.5V57.5M46 57.5V67M46 57.5H36M46 57.5H56M34 69C28.9924 64.0214 27.6888 56.4031 30.7689 50.049C36.8106 37.5852 54.5905 37.6472 60.5752 50.1384C63.598 56.4475 62.3259 63.9836 57.3936 68.9449C50.9561 75.4201 40.4751 75.4376 34 69Z" stroke="white" stroke-width="2" stroke-miterlimit="1" stroke-linecap="round"/>
</svg>
