<svg width="80" height="75" viewBox="0 0 80 75" fill="none" xmlns="http://www.w3.org/2000/svg">
<path d="M62 47V66.5M52 57H72M45.75 62H9C4.58172 62 1 58.4183 1 54V9C1 4.58172 4.58173 1 9.00001 1H21.2099C23.5357 1 25.7465 2.01222 27.2661 3.77298L31.9734 9.22701C33.493 10.9878 35.7038 12 38.0296 12H62.7334C67.2544 12 70.8773 15.7435 70.7291 20.2621L70 42.5V42.5C57.3419 35.6313 42.4607 46.787 45.5043 60.8634L45.75 62ZM50.0125 68.8306V68.8306C56.4876 75.2682 66.9686 75.2507 73.4061 68.7755V68.7755C78.3385 63.8142 79.6106 56.2781 76.5877 49.969V49.969C70.603 37.4778 52.8231 37.4158 46.7815 49.8796V49.8796C43.7013 56.2338 45.0049 63.852 50.0125 68.8306Z" stroke="white" stroke-width="2" stroke-linecap="round"/>
</svg>
