<svg width="102" height="105" viewBox="0 0 102 105" fill="none" xmlns="http://www.w3.org/2000/svg">
<path d="M89 21V47.8591C89 54.758 84.4483 60.8297 77.8261 62.7643L77.1894 62.9503C55.8525 69.1835 33.1682 69.1135 11.8702 62.7486V62.7486C5.41975 60.8208 1 54.8871 1 48.1548V21M89 47.5V71.1028V71.1028C75.7888 67.2851 63.7762 79.9728 68.3099 92.9557L68.5 93.5C51.9539 95.9125 28.0138 95.5731 11.8702 90.7486C5.41975 88.8208 1 82.8871 1 76.1548V48.5M74.5 87H84.5H94.5M72.5 98.6556C67.4924 93.677 66.1888 86.0588 69.2689 79.7046C75.3106 67.2409 93.0905 67.3028 99.0752 79.794C102.098 86.1031 100.826 93.6392 95.8936 98.6005C89.4561 105.076 78.9751 105.093 72.5 98.6556ZM83.0545 29.3277V29.3277C59.2793 41.6183 30.8858 41.5779 7.19736 29.121V29.121C-0.974643 24.8237 -0.579892 12.992 7.86038 9.24888L9.41604 8.55897C31.7883 -1.36265 57.2813 -1.52232 79.7761 8.11831L82.3924 9.23962C91.0111 12.9333 91.3842 25.0217 83.0545 29.3277Z" stroke="white" stroke-width="1.5" stroke-linecap="round"/>
</svg>
