<svg width="68" height="67" viewBox="0 0 68 67" fill="none" xmlns="http://www.w3.org/2000/svg">
<path d="M34 1C51.9493 1 66.5 15.5507 66.5 33.5C66.5 51.4493 51.9493 66 34 66C16.0507 66 1.5 51.4493 1.5 33.5C1.5 15.5507 16.0507 1 34 1Z" stroke="white" stroke-width="2"/>
<path d="M14 33C13.4477 33 13 33.4477 13 34C13 34.5523 13.4477 35 14 35V33ZM14 34V35L52 35V34V33L14 33V34Z" fill="white"/>
<path d="M41 47L49.6631 38.0418C51.5276 36.1138 51.5388 33.058 49.6884 31.1164L41 22" stroke="white" stroke-width="2" stroke-linecap="round"/>
</svg>
