<svg width="7" height="30" viewBox="0 0 7 30" fill="none" xmlns="http://www.w3.org/2000/svg">
<path d="M3.51136 5.22727C2.81061 5.22727 2.20928 4.97633 1.70739 4.47443C1.20549 3.97254 0.954546 3.37121 0.954546 2.67045C0.954546 1.9697 1.20549 1.36837 1.70739 0.866477C2.20928 0.364583 2.81061 0.113636 3.51136 0.113636C4.21212 0.113636 4.81345 0.364583 5.31534 0.866477C5.81723 1.36837 6.06818 1.9697 6.06818 2.67045C6.06818 3.13447 5.94981 3.56061 5.71307 3.94886C5.4858 4.33712 5.17803 4.64962 4.78977 4.88636C4.41099 5.11364 3.98485 5.22727 3.51136 5.22727ZM3.51136 17.2273C2.81061 17.2273 2.20928 16.9763 1.70739 16.4744C1.20549 15.9725 0.954546 15.3712 0.954546 14.6705C0.954546 13.9697 1.20549 13.3684 1.70739 12.8665C2.20928 12.3646 2.81061 12.1136 3.51136 12.1136C4.21212 12.1136 4.81345 12.3646 5.31534 12.8665C5.81723 13.3684 6.06818 13.9697 6.06818 14.6705C6.06818 15.1345 5.94981 15.5606 5.71307 15.9489C5.4858 16.3371 5.17803 16.6496 4.78977 16.8864C4.41099 17.1136 3.98485 17.2273 3.51136 17.2273ZM3.51136 29.2273C2.81061 29.2273 2.20928 28.9763 1.70739 28.4744C1.20549 27.9725 0.954546 27.3712 0.954546 26.6705C0.954546 25.9697 1.20549 25.3684 1.70739 24.8665C2.20928 24.3646 2.81061 24.1136 3.51136 24.1136C4.21212 24.1136 4.81345 24.3646 5.31534 24.8665C5.81723 25.3684 6.06818 25.9697 6.06818 26.6705C6.06818 27.1345 5.94981 27.5606 5.71307 27.9489C5.4858 28.3371 5.17803 28.6496 4.78977 28.8864C4.41099 29.1136 3.98485 29.2273 3.51136 29.2273Z" fill="black"/>
</svg>
