<svg width="38" height="38" viewBox="0 0 38 38" fill="none" xmlns="http://www.w3.org/2000/svg">
<path d="M27.5 1L28.0445 0.484192C27.9052 0.33724 27.7125 0.252803 27.5101 0.250068C27.3077 0.247334 27.1128 0.326533 26.9697 0.46967L27.5 1ZM1.5 27L0.96967 26.4697C0.838656 26.6007 0.760775 26.7756 0.751037 26.9606L1.5 27ZM10.5 36.5V37.25C10.6989 37.25 10.8897 37.171 11.0303 37.0303L10.5 36.5ZM36.5 10.5L37.0303 11.0303C37.3176 10.743 37.3239 10.2792 37.0445 9.98419L36.5 10.5ZM1.0554 35.4474L0.306434 35.408L1.0554 35.4474ZM1.5 27L0.751037 26.9606L0.306434 35.408L1.0554 35.4474L1.80436 35.4869L2.24896 27.0394L1.5 27ZM2.05402 36.5V37.25H10.5V36.5V35.75H2.05402V36.5ZM36.5 10.5L37.0445 9.98419L28.0445 0.484192L27.5 1L26.9555 1.51581L35.9555 11.0158L36.5 10.5ZM27.5 1L26.9697 0.46967L20.9697 6.46967L21.5 7L22.0303 7.53033L28.0303 1.53033L27.5 1ZM21.5 7L20.9697 6.46967L0.96967 26.4697L1.5 27L2.03033 27.5303L22.0303 7.53033L21.5 7ZM10.5 36.5L11.0303 37.0303L31.0303 17.0303L30.5 16.5L29.9697 15.9697L9.96967 35.9697L10.5 36.5ZM30.5 16.5L31.0303 17.0303L37.0303 11.0303L36.5 10.5L35.9697 9.96967L29.9697 15.9697L30.5 16.5ZM21.5 7L20.9555 7.51581L29.9555 17.0158L30.5 16.5L31.0445 15.9842L22.0445 6.48419L21.5 7ZM1.0554 35.4474L0.306434 35.408C0.253737 36.4093 1.05138 37.25 2.05402 37.25V36.5V35.75C1.91078 35.75 1.79683 35.6299 1.80436 35.4869L1.0554 35.4474Z" fill="white"/>
</svg>
