<svg width="83" height="83" viewBox="0 0 83 83" fill="none" xmlns="http://www.w3.org/2000/svg">
<path d="M50.4964 26.2535C55.2311 31.1234 55.2311 38.8766 50.4964 43.7465C45.5694 48.8144 37.4306 48.8144 32.5036 43.7465C27.7689 38.8766 27.7689 31.1234 32.5036 26.2535C37.4306 21.1856 45.5694 21.1856 50.4964 26.2535Z" stroke="white" stroke-width="2"/>
<path d="M20 62.5L22.1074 61.0608C33.2775 53.4324 47.9069 53.1509 59.3623 60.3437L62 62" stroke="white" stroke-width="2"/>
<path d="M61.9206 21.0794C73.5079 32.6667 73.3558 51.5016 61.586 62.9035C50.0776 74.0523 31.7507 73.9094 20.4206 62.5794C9.09058 51.2493 8.94769 32.9224 20.0965 21.414C31.4984 9.64421 50.3333 9.49206 61.9206 21.0794Z" stroke="white" stroke-width="2"/>
</svg>
