<svg width="62" height="62" viewBox="0 0 62 62" fill="none" xmlns="http://www.w3.org/2000/svg">
<path d="M50.9786 52.2438L51.4158 51.8269C51.837 51.4253 51.7601 50.7329 51.2611 50.4335L48.6703 48.8791C37.1637 41.9751 22.6728 42.4847 11.6797 50.1799L10.6163 50.9243C10.1699 51.2367 10.1215 51.8797 10.5161 52.2555C21.8469 63.0467 39.654 63.0416 50.9786 52.2438ZM50.9786 52.2438C62.7483 40.8418 62.9004 22.0072 51.3131 10.4199C39.7258 -1.16742 20.8909 -1.01527 9.48893 10.7545C-1.65988 22.2629 -1.51699 40.5898 9.81307 51.9199C21.1431 63.2499 39.4701 63.3926 50.9786 52.2438ZM39.6761 32.9265C44.4108 28.0565 44.4108 20.3033 39.6761 15.4334C34.749 10.3655 26.6103 10.3656 21.6833 15.4334C16.9486 20.3033 16.9486 28.0565 21.6832 32.9264C26.6103 37.9943 34.749 37.9943 39.6761 32.9265ZM59.9964 32.1391V32.1391C59.454 48.1531 46.1647 60.7741 30.1442 60.486V60.486C14.1237 60.1978 1.29694 47.1069 1.33082 31.0838V31.0838C1.36547 14.697 14.8155 1.51086 31.1998 1.80558V1.80558C47.584 2.1003 60.5511 15.7616 59.9964 32.1391Z" stroke="white" stroke-width="2"/>
</svg>
