<svg width="113" height="116" viewBox="0 0 113 116" fill="none" xmlns="http://www.w3.org/2000/svg">
<path d="M71.2406 45.2591C78.3626 52.6498 78.3626 64.3502 71.2406 71.7409C63.7356 79.5291 51.2644 79.5291 43.7594 71.7409C36.6374 64.3502 36.6374 52.6498 43.7594 45.2591C51.2644 37.4709 63.7356 37.4709 71.2406 45.2591Z" stroke="white" stroke-width="2"/>
<path d="M6.49625 30.0469L5.52399 31.8359C2.45431 37.4841 4.46256 44.55 10.044 47.7395C17.9833 52.2762 17.9833 63.7238 10.0441 68.2605C4.46257 71.45 2.4543 78.5159 5.52399 84.1641L6.58205 86.111C9.88916 92.1961 17.4074 94.5893 23.6236 91.5358C31.8923 87.474 41.633 93.1275 42.2076 102.322L42.2295 102.672C42.6626 109.601 48.4092 115 55.3525 115H56.5566C63.5212 115 69.2565 109.527 69.5826 102.57C70.0187 93.2669 79.7856 87.4067 88.1997 91.3998L88.5965 91.5882C94.9929 94.6238 102.647 92.1304 106.027 85.9096L107.014 84.0934C110.07 78.4721 108.101 71.4403 102.571 68.2229C94.7314 63.6619 94.7314 52.3381 102.571 47.7771C108.101 44.5597 110.07 37.5279 107.014 31.9066L105.918 29.889C102.611 23.8039 95.0926 21.4107 88.8764 24.4642C80.6077 28.526 70.867 22.8725 70.2924 13.678L70.2705 13.3284C69.8374 6.39864 64.0908 1 57.1475 1H55.9087C48.9338 1 43.1605 6.43257 42.7254 13.3939C42.1408 22.7473 32.2622 28.5404 23.8226 24.4661C17.4832 21.4057 9.8577 23.8618 6.49625 30.0469Z" stroke="white" stroke-width="2"/>
</svg>
